<?xml version="1.0" standalone="no"?>
<!DOCTYPE svg PUBLIC "-//W3C//DTD SVG 20010904//EN"
 "http://www.w3.org/TR/2001/REC-SVG-20010904/DTD/svg10.dtd">
<svg version="1.0" xmlns="http://www.w3.org/2000/svg"
 width="400.000000pt" height="400.000000pt" viewBox="0 0 400.000000 400.000000"
 preserveAspectRatio="xMidYMid meet">
<metadata>
Created by potrace 1.11, written by Peter Selinger 2001-2013
</metadata>
<g transform="translate(0.000000,400.000000) scale(0.100000,-0.100000)"
fill="#000000" stroke="none">
<path d="M1027 3794 c-1 -1 -40 -4 -87 -7 -98 -7 -136 -13 -205 -33 -5 -2 -21
-5 -34 -8 -12 -3 -28 -9 -35 -14 -6 -5 -25 -14 -41 -19 -56 -19 -149 -86 -221
-158 -133 -134 -202 -299 -221 -528 -8 -106 -9 -1836 0 -1987 4 -63 16 -152
27 -197 20 -86 77 -223 91 -223 5 0 9 -5 9 -11 0 -13 51 -79 95 -124 80 -82
195 -152 308 -189 128 -42 185 -44 1247 -44 1082 0 1091 0 1240 49 217 71 392
244 469 464 48 137 49 153 49 1245 1 1009 -1 1088 -33 1215 -17 69 -84 209
-114 242 -12 12 -21 26 -21 31 0 13 -108 113 -163 151 -108 74 -223 114 -387
137 -43 6 -1966 14 -1973 8z"/>
</g>
</svg>
